<svg width="132" height="40" viewBox="0 0 132 40" fill="none" xmlns="http://www.w3.org/2000/svg">
<path d="M8.477 39.9981C8.13507 39.9981 7.8023 39.9933 7.46444 39.9867C6.76345 39.978 6.06411 39.9208 5.37216 39.8156C4.72675 39.712 4.10148 39.5191 3.51699 39.2433C2.93791 38.9694 2.40979 38.6102 1.95286 38.1795C1.48958 37.7542 1.10389 37.261 0.811065 36.7193C0.514953 36.1741 0.310063 35.5896 0.203529 34.9863C0.0881055 34.3383 0.02551 33.683 0.0162824 33.0261C0.0101765 32.8056 0 32.0707 0 32.0707V7.91596C0 7.91596 0.0101765 7.19348 0.0162824 6.98054C0.0254412 6.3246 0.0875177 5.66961 0.202512 5.02222C0.309118 4.41745 0.513993 3.83143 0.810047 3.28446C1.40556 2.19635 2.35263 1.31097 3.51699 0.753856C4.09967 0.478549 4.72332 0.286595 5.36707 0.184424C6.06132 0.0785038 6.76308 0.0213056 7.46648 0.0133089L8.477 0H123.517L124.54 0.0123583C125.237 0.020914 125.932 0.0770017 126.62 0.183473C127.27 0.286032 127.901 0.478928 128.49 0.755757C129.652 1.31514 130.597 2.20001 131.193 3.28636C131.485 3.82917 131.687 4.41096 131.793 5.01081C131.908 5.66295 131.974 6.32269 131.987 6.98434C131.99 7.27999 131.99 7.59845 131.99 7.91501C132 8.30668 132 8.68028 132 9.05578V30.9414C132 31.3216 132 31.6924 131.99 32.066C131.99 32.4063 131.99 32.7172 131.986 33.0385C131.973 33.6881 131.909 34.3359 131.794 34.9768C131.69 35.5844 131.486 36.1734 131.19 36.7231C130.895 37.2589 130.511 37.7478 130.053 38.1719C129.595 38.6044 129.066 38.9655 128.486 39.2414C127.898 39.5192 127.269 39.7128 126.62 39.8156C125.928 39.9211 125.229 39.9781 124.527 39.9867C124.2 39.9933 123.856 39.9971 123.523 39.9971L122.309 40L8.477 39.9981Z" fill="black"/>
<path fill-rule="evenodd" clip-rule="evenodd" d="M23.7803 12.4828C23.8223 12.4279 23.8684 12.3751 23.9186 12.3249L25.7828 10.4608C26.3972 9.84639 27.3934 9.84639 28.0078 10.4608C28.6222 11.0752 28.6222 12.0714 28.0078 12.6858L26.4032 14.2904C27.7857 15.6063 28.6248 17.2408 28.9533 19.1731C29.1354 20.2428 28.7969 20.6553 27.6236 20.6451L10.5565 20.6499C9.30703 20.6685 8.86862 20.2086 9.08224 19.106C9.42609 17.3352 10.1512 15.8188 11.2775 14.5933L9.46082 12.7766C8.84639 12.1622 8.84639 11.166 9.46082 10.5516C10.0752 9.93719 11.0714 9.93719 11.6858 10.5516L13.55 12.4157C13.6359 12.5016 13.7097 12.595 13.7716 12.6937C14.1302 12.5034 14.5091 12.3285 14.9084 12.1693C17.9746 10.9459 20.9751 11.0725 23.7803 12.4828ZM15.2026 17.0802C15.2026 17.5147 14.8504 17.8669 14.4159 17.8669C13.9815 17.8669 13.6293 17.5147 13.6293 17.0802C13.6293 16.6458 13.9815 16.2936 14.4159 16.2936C14.8504 16.2936 15.2026 16.6458 15.2026 17.0802ZM23.6136 17.8669C24.0481 17.8669 24.4003 17.5147 24.4003 17.0802C24.4003 16.6458 24.0481 16.2936 23.6136 16.2936C23.1791 16.2936 22.8269 16.6458 22.8269 17.0802C22.8269 17.5147 23.1791 17.8669 23.6136 17.8669Z" fill="#A4C639"/>
<path d="M10.1959 29.3309C10.6101 29.3309 10.8313 29.1191 10.9866 28.5731L11.2361 27.8059H13.3965L13.6412 28.5731C13.7966 29.105 14.0366 29.3309 14.4508 29.3309C14.8979 29.3309 15.1898 29.0673 15.1898 28.6579C15.1898 28.4931 15.1474 28.3049 15.0627 28.0413L13.6459 23.8758C13.3871 23.1086 13.0294 22.8074 12.3516 22.8074C11.6738 22.8074 11.3067 23.1133 11.0525 23.8758L9.63108 28.0413C9.52283 28.3566 9.48047 28.5355 9.48047 28.6908C9.48047 29.0673 9.77229 29.3309 10.1959 29.3309ZM11.5561 26.681L12.2857 24.2476H12.361L13.0811 26.681H11.5561Z" fill="#A4C639"/>
<path d="M17.1964 29.3262C17.6953 29.3262 17.9777 29.0203 17.9777 28.4884V27.227H19.0132C20.4864 27.227 21.3901 26.441 21.3901 25.0337C21.3901 23.7111 20.5005 22.8544 19.0932 22.8544H17.4412C16.7069 22.8544 16.4245 23.151 16.4245 23.9182V28.4884C16.4245 29.025 16.7022 29.3262 17.1964 29.3262ZM17.9824 26.0692V24.0547H18.8626C19.498 24.0547 19.851 24.4218 19.851 25.0619C19.851 25.8056 19.4933 26.0692 18.6884 26.0692H17.9824Z" fill="#A4C639"/>
<path d="M27.0916 29.3168C27.534 29.3168 27.8399 29.0156 27.8399 28.5826C27.8399 28.366 27.7693 28.206 27.5199 27.8718L25.9102 25.6973L27.421 24.0641C27.6281 23.8382 27.7034 23.6922 27.7034 23.4993C27.7034 23.118 27.4069 22.8168 27.021 22.8168C26.7997 22.8168 26.6209 22.9156 26.4091 23.1463L24.2487 25.4949H24.164V23.6452C24.164 23.1133 23.8816 22.8074 23.3826 22.8074C22.8837 22.8074 22.606 23.1086 22.606 23.6452V28.4884C22.606 29.0156 22.8978 29.3262 23.4015 29.3262C23.891 29.3262 24.164 29.025 24.164 28.4884V27.2835L24.757 26.681L26.3196 28.832C26.5644 29.1709 26.7997 29.3168 27.0916 29.3168Z" fill="#A4C639"/>
<path d="M33.56 9.288V15H35.624C36.544 15 37.24 14.744 37.72 14.232C38.176 13.736 38.408 13.04 38.408 12.144C38.408 11.24 38.184 10.544 37.736 10.064C37.256 9.544 36.56 9.288 35.64 9.288H33.56ZM34.432 10.032H35.48C36.2 10.032 36.728 10.2 37.064 10.544C37.384 10.88 37.552 11.408 37.552 12.144C37.552 12.864 37.384 13.392 37.056 13.736C36.72 14.08 36.184 14.256 35.464 14.256H34.432V10.032ZM41.1184 10.752C40.4944 10.752 39.9904 10.96 39.6144 11.376C39.2384 11.784 39.0544 12.304 39.0544 12.936C39.0544 13.56 39.2384 14.08 39.6064 14.48C39.9904 14.896 40.4944 15.112 41.1184 15.112C41.7424 15.112 42.2464 14.896 42.6304 14.48C42.9984 14.08 43.1824 13.56 43.1824 12.936C43.1824 12.304 42.9904 11.784 42.6224 11.376C42.2464 10.96 41.7424 10.752 41.1184 10.752ZM41.1184 11.448C41.5104 11.448 41.8144 11.6 42.0384 11.912C42.2304 12.176 42.3264 12.52 42.3264 12.936C42.3264 13.344 42.2304 13.68 42.0384 13.952C41.8144 14.256 41.5104 14.416 41.1184 14.416C40.7264 14.416 40.4224 14.256 40.2064 13.952C40.0144 13.688 39.9264 13.352 39.9264 12.936C39.9264 12.52 40.0144 12.176 40.2064 11.912C40.4224 11.6 40.7264 11.448 41.1184 11.448ZM43.5478 10.864L44.9478 15H45.7318L46.5958 11.904L47.4598 15H48.2438L49.6438 10.864H48.7078L47.8358 13.992L46.9878 10.864H46.2038L45.3558 13.992L44.4838 10.864H43.5478ZM52.2635 10.752C52.0075 10.752 51.7755 10.8 51.5675 10.912C51.3595 11.016 51.1755 11.168 51.0155 11.376V10.864H50.1675V15H51.0155V12.512C51.0475 12.176 51.1675 11.912 51.3595 11.72C51.5355 11.544 51.7515 11.464 51.9915 11.464C52.6315 11.464 52.9595 11.816 52.9595 12.52V15H53.8075V12.448C53.8075 11.312 53.2875 10.752 52.2635 10.752ZM54.8729 9.176V15H55.7209V9.176H54.8729ZM58.6809 10.752C58.0569 10.752 57.5529 10.96 57.1769 11.376C56.8009 11.784 56.6169 12.304 56.6169 12.936C56.6169 13.56 56.8009 14.08 57.1689 14.48C57.5529 14.896 58.0569 15.112 58.6809 15.112C59.3049 15.112 59.8089 14.896 60.1929 14.48C60.5609 14.08 60.7449 13.56 60.7449 12.936C60.7449 12.304 60.5529 11.784 60.1849 11.376C59.8089 10.96 59.3049 10.752 58.6809 10.752ZM58.6809 11.448C59.0729 11.448 59.3769 11.6 59.6009 11.912C59.7929 12.176 59.8889 12.52 59.8889 12.936C59.8889 13.344 59.7929 13.68 59.6009 13.952C59.3769 14.256 59.0729 14.416 58.6809 14.416C58.2889 14.416 57.9849 14.256 57.7689 13.952C57.5769 13.688 57.4889 13.352 57.4889 12.936C57.4889 12.52 57.5769 12.176 57.7689 11.912C57.9849 11.6 58.2889 11.448 58.6809 11.448ZM63.4143 10.752C62.9023 10.752 62.4863 10.84 62.1823 11.032C61.8303 11.24 61.6063 11.576 61.5183 12.024L62.3583 12.096C62.4063 11.864 62.5263 11.696 62.7183 11.584C62.8783 11.488 63.0943 11.44 63.3583 11.44C63.9823 11.44 64.2943 11.728 64.2943 12.304V12.472L63.3663 12.496C62.7583 12.512 62.2783 12.632 61.9423 12.872C61.5743 13.12 61.3903 13.48 61.3903 13.944C61.3903 14.288 61.5183 14.568 61.7823 14.784C62.0223 15 62.3583 15.112 62.7903 15.112C63.1583 15.112 63.4783 15.04 63.7503 14.912C63.9903 14.792 64.1903 14.624 64.3503 14.416V15H65.1343V12.36C65.1343 11.856 65.0063 11.472 64.7583 11.208C64.4703 10.904 64.0223 10.752 63.4143 10.752ZM64.2943 13.088V13.328C64.2943 13.648 64.1583 13.92 63.9023 14.136C63.6463 14.352 63.3423 14.464 62.9823 14.464C62.7663 14.464 62.5903 14.408 62.4623 14.304C62.3263 14.2 62.2623 14.072 62.2623 13.912C62.2623 13.4 62.6463 13.128 63.4223 13.112L64.2943 13.088ZM69.081 9.176V11.48C68.745 10.992 68.321 10.752 67.817 10.752C67.225 10.752 66.753 10.968 66.417 11.4C66.097 11.8 65.945 12.304 65.945 12.912C65.945 13.544 66.105 14.064 66.425 14.464C66.769 14.896 67.249 15.112 67.857 15.112C68.417 15.112 68.849 14.904 69.137 14.504V15H69.929V9.176H69.081ZM68.009 11.44C68.321 11.44 68.577 11.56 68.785 11.816C68.993 12.088 69.105 12.448 69.105 12.896V12.968C69.105 13.384 69.017 13.72 68.841 13.984C68.633 14.272 68.353 14.424 67.985 14.424C67.569 14.424 67.257 14.272 67.065 13.976C66.897 13.72 66.817 13.368 66.817 12.912C66.817 12.456 66.905 12.104 67.081 11.864C67.281 11.576 67.593 11.44 68.009 11.44Z" fill="#FAFAFA"/>
<path d="M35.392 26.152L35.886 24.605C36.237 23.526 36.549 22.512 36.861 21.381H36.913C37.238 22.499 37.537 23.526 37.901 24.605L38.395 26.152H35.392ZM39.617 30H40.761L37.498 20.484H36.315L33.065 30H34.144L35.119 26.997H38.668L39.617 30ZM42.0426 30H43.0956V24.865C43.8236 24.111 44.3566 23.721 45.0976 23.721C46.0726 23.721 46.4886 24.319 46.4886 25.671V30H47.5546V25.541C47.5546 23.747 46.8786 22.798 45.4096 22.798C44.4476 22.798 43.7196 23.344 43.0436 24.007H43.0046L42.9006 22.98H42.0426V30ZM52.2797 30.169C53.1377 30.169 53.8917 29.714 54.4507 29.155H54.4767L54.5807 30H55.4517V19.652H54.3987V22.408L54.4507 23.63C53.8137 23.11 53.2677 22.798 52.4357 22.798C50.8237 22.798 49.3807 24.228 49.3807 26.503C49.3807 28.843 50.5117 30.169 52.2797 30.169ZM52.5007 29.272C51.2137 29.272 50.4857 28.219 50.4857 26.49C50.4857 24.852 51.4087 23.695 52.6047 23.695C53.2157 23.695 53.7617 23.916 54.3987 24.475V28.271C53.7747 28.934 53.1767 29.272 52.5007 29.272ZM57.9118 30H58.9648V25.424C59.4458 24.202 60.1738 23.76 60.7718 23.76C61.0448 23.76 61.2008 23.799 61.4348 23.877L61.6428 22.954C61.4088 22.837 61.2008 22.798 60.9018 22.798C60.1088 22.798 59.3938 23.383 58.9128 24.267H58.8738L58.7698 22.98H57.9118V30ZM65.3759 30.169C67.0919 30.169 68.6129 28.817 68.6129 26.503C68.6129 24.15 67.0919 22.798 65.3759 22.798C63.6599 22.798 62.1519 24.15 62.1519 26.503C62.1519 28.817 63.6599 30.169 65.3759 30.169ZM65.3759 29.285C64.1149 29.285 63.2439 28.167 63.2439 26.503C63.2439 24.826 64.1149 23.695 65.3759 23.695C66.6369 23.695 67.5209 24.826 67.5209 26.503C67.5209 28.167 66.6369 29.285 65.3759 29.285ZM70.5182 30H71.5712V22.98H70.5182V30ZM71.0512 21.472C71.4672 21.472 71.8182 21.173 71.8182 20.757C71.8182 20.302 71.4672 20.029 71.0512 20.029C70.6092 20.029 70.2842 20.302 70.2842 20.757C70.2842 21.173 70.6092 21.472 71.0512 21.472ZM76.3754 30.169C77.2334 30.169 77.9874 29.714 78.5464 29.155H78.5724L78.6764 30H79.5474V19.652H78.4944V22.408L78.5464 23.63C77.9094 23.11 77.3634 22.798 76.5314 22.798C74.9194 22.798 73.4764 24.228 73.4764 26.503C73.4764 28.843 74.6074 30.169 76.3754 30.169ZM76.5964 29.272C75.3094 29.272 74.5814 28.219 74.5814 26.49C74.5814 24.852 75.5044 23.695 76.7004 23.695C77.3114 23.695 77.8574 23.916 78.4944 24.475V28.271C77.8704 28.934 77.2724 29.272 76.5964 29.272ZM86.059 26.152L86.553 24.605C86.904 23.526 87.216 22.512 87.528 21.381H87.58C87.905 22.499 88.204 23.526 88.568 24.605L89.062 26.152H86.059ZM90.284 30H91.428L88.165 20.484H86.982L83.732 30H84.811L85.786 26.997H89.335L90.284 30ZM92.8006 30H93.8796V26.152H95.4916C97.5846 26.152 98.9756 25.216 98.9756 23.24C98.9756 21.199 97.5846 20.484 95.4396 20.484H92.8006V30ZM93.8796 25.268V21.355H95.2836C97.0256 21.355 97.9096 21.81 97.9096 23.24C97.9096 24.657 97.0776 25.268 95.3356 25.268H93.8796ZM100.938 30H102.017V26.932L103.72 24.93L106.632 30H107.841L104.409 24.085L107.399 20.484H106.164L102.043 25.385H102.017V20.484H100.938V30Z" fill="#FAFAFA"/>
</svg>
