<svg width="132" height="40" viewBox="0 0 132 40" fill="none" xmlns="http://www.w3.org/2000/svg">
<path d="M8.477 39.9981C8.13507 39.9981 7.8023 39.9933 7.46444 39.9867C6.76345 39.978 6.06411 39.9208 5.37216 39.8156C4.72675 39.712 4.10148 39.5191 3.51699 39.2433C2.93791 38.9694 2.40979 38.6102 1.95286 38.1795C1.48958 37.7542 1.10389 37.261 0.811065 36.7193C0.514953 36.1741 0.310063 35.5896 0.203529 34.9863C0.0881055 34.3383 0.02551 33.683 0.0162824 33.0261C0.0101765 32.8056 0 32.0707 0 32.0707V7.91596C0 7.91596 0.0101765 7.19348 0.0162824 6.98054C0.0254412 6.3246 0.0875177 5.66961 0.202512 5.02222C0.309118 4.41745 0.513993 3.83143 0.810047 3.28446C1.40556 2.19635 2.35263 1.31097 3.51699 0.753856C4.09967 0.478549 4.72332 0.286595 5.36707 0.184424C6.06132 0.0785038 6.76308 0.0213055 7.46648 0.0133089L8.477 0H123.517L124.54 0.0123583C125.237 0.020914 125.932 0.0770017 126.62 0.183473C127.27 0.286032 127.901 0.478928 128.49 0.755757C129.652 1.31514 130.597 2.20001 131.193 3.28636C131.485 3.82917 131.687 4.41096 131.793 5.01081C131.908 5.66295 131.974 6.32269 131.987 6.98434C131.99 7.27999 131.99 7.59845 131.99 7.91501C132 8.30668 132 8.68028 132 9.05578V30.9414C132 31.3216 132 31.6924 131.99 32.066C131.99 32.4063 131.99 32.7172 131.986 33.0385C131.973 33.6881 131.909 34.3359 131.794 34.9768C131.69 35.5844 131.486 36.1734 131.19 36.7231C130.895 37.2589 130.511 37.7478 130.053 38.1719C129.595 38.6044 129.066 38.9655 128.486 39.2414C127.898 39.5192 127.269 39.7128 126.62 39.8156C125.928 39.9211 125.229 39.9781 124.527 39.9867C124.2 39.9933 123.856 39.9971 123.523 39.9971L122.309 40L8.477 39.9981Z" fill="black"/>
<path d="M49.3972 27.4587H44.7696L43.6585 30.7404H41.6976L46.0816 18.5982H48.118L52.502 30.7404H50.5083L49.3972 27.4587ZM45.2487 25.944H48.9171L47.1091 20.6178H47.0576L45.2478 25.944H45.2487ZM61.9687 26.3147C61.9687 29.0658 60.4967 30.8329 58.2754 30.8329C57.7125 30.8625 57.1526 30.7329 56.6599 30.4591C56.1672 30.1852 55.7616 29.7781 55.4896 29.2844H55.4478V33.6684H53.63V21.888H55.39V23.36H55.4229C55.7074 22.869 56.1197 22.4642 56.6158 22.1887C57.112 21.9133 57.6735 21.7774 58.2407 21.7955C60.4887 21.7955 61.9687 23.5707 61.9687 26.3147ZM60.102 26.3147C60.102 24.5218 59.1749 23.344 57.7625 23.344C56.374 23.344 55.4398 24.5467 55.4398 26.3147C55.4398 28.0978 56.3731 29.2924 57.7625 29.2924C59.1758 29.2924 60.102 28.1227 60.102 26.3147ZM71.7127 26.3147C71.7127 29.0658 70.2407 30.8329 68.0185 30.8329C67.4556 30.8625 66.8957 30.7329 66.403 30.4591C65.9103 30.1852 65.5047 29.7781 65.2327 29.2844H65.1909V33.6684H63.374V21.888H65.1323V23.36H65.166C65.4506 22.8688 65.863 22.464 66.3593 22.1885C66.8556 21.913 67.4174 21.7772 67.9847 21.7955C70.2318 21.7955 71.7127 23.5707 71.7127 26.3147ZM69.8451 26.3147C69.8451 24.5218 68.9189 23.344 67.5056 23.344C66.1171 23.344 65.1829 24.5467 65.1829 26.3147C65.1829 28.0978 66.1171 29.2924 67.5056 29.2924C68.9189 29.2924 69.8451 28.1227 69.8451 26.3147ZM78.1527 27.3573C78.2869 28.5609 79.4567 29.352 81.0549 29.352C82.5865 29.352 83.6887 28.5609 83.6887 27.4755C83.6887 26.5333 83.0238 25.9689 81.4505 25.5822L79.8772 25.2027C77.6469 24.664 76.6123 23.6213 76.6123 21.9298C76.6123 19.8347 78.438 18.3955 81.03 18.3955C83.5963 18.3955 85.3545 19.8347 85.414 21.9298H83.5794C83.47 20.7182 82.4683 19.9867 81.0043 19.9867C79.5403 19.9867 78.5394 20.7262 78.5394 21.8035C78.5394 22.6622 79.1794 23.1671 80.7438 23.5538L82.0816 23.8827C84.5732 24.4711 85.6078 25.472 85.6078 27.248C85.6078 29.52 83.798 30.9422 80.9207 30.9422C78.2274 30.9422 76.4096 29.5529 76.2923 27.3573H78.1527ZM89.5296 19.7929V21.888H91.2132V23.3262H89.5287V28.2062C89.5287 28.9653 89.8656 29.3182 90.606 29.3182C90.8052 29.3147 91.0052 29.3004 91.2034 29.2764V30.7075C90.8707 30.7687 90.5327 30.7966 90.1945 30.7911C88.4016 30.7911 87.7029 30.1173 87.7029 28.4V23.3262H86.4158V21.888H87.7029V19.7929H89.5296ZM92.1874 26.3147C92.1874 23.5289 93.8283 21.7787 96.3865 21.7787C98.9527 21.7787 100.586 23.5298 100.586 26.3147C100.586 29.1075 98.9616 30.8498 96.3865 30.8498C93.8123 30.8498 92.1874 29.1075 92.1874 26.3147ZM98.734 26.3147C98.734 24.4035 97.8585 23.2764 96.3865 23.2764C94.9136 23.2764 94.0398 24.4124 94.0398 26.3147C94.0398 28.2329 94.9136 29.352 96.3865 29.352C97.8585 29.352 98.734 28.232 98.734 26.3147ZM102.084 21.888H103.818V23.3947H103.859C103.976 22.924 104.252 22.508 104.64 22.2166C105.027 21.9252 105.504 21.7762 105.988 21.7947C106.198 21.7947 106.406 21.8169 106.61 21.8631V23.5627C106.346 23.4818 106.071 23.4446 105.794 23.4524C105.53 23.4417 105.267 23.4883 105.023 23.589C104.779 23.6896 104.559 23.842 104.379 24.0355C104.199 24.2291 104.063 24.4593 103.981 24.7103C103.898 24.9613 103.871 25.2272 103.901 25.4898V30.7404H102.084V21.888ZM114.989 28.1404C114.745 29.7475 113.179 30.8498 111.177 30.8498C108.602 30.8498 107.003 29.1253 107.003 26.3564C107.003 23.5795 108.61 21.7787 111.101 21.7787C113.55 21.7787 115.09 23.4613 115.09 26.1458V26.768H108.838V26.8773C108.809 27.2031 108.85 27.5313 108.958 27.8401C109.065 28.1489 109.238 28.4313 109.463 28.6685C109.688 28.9056 109.961 29.0922 110.264 29.2157C110.567 29.3392 110.893 29.3969 111.219 29.3849C111.649 29.4252 112.08 29.3259 112.448 29.1017C112.816 28.8774 113.102 28.5403 113.264 28.1404H114.989ZM108.847 25.4978H113.272C113.288 25.2049 113.244 24.9119 113.141 24.6371C113.039 24.3622 112.881 24.1115 112.677 23.9006C112.473 23.6897 112.228 23.5232 111.957 23.4115C111.686 23.2998 111.394 23.2453 111.101 23.2515C110.805 23.2497 110.512 23.3064 110.238 23.4185C109.964 23.5306 109.715 23.6959 109.506 23.9047C109.296 24.1136 109.13 24.3619 109.016 24.6353C108.903 24.9087 108.846 25.2018 108.847 25.4978ZM45.0212 9.45865C45.402 9.43144 45.7842 9.48907 46.1401 9.62739C46.4961 9.76571 46.8169 9.98127 47.0794 10.2585C47.342 10.5358 47.5398 10.8679 47.6585 11.2308C47.7772 11.5937 47.8139 11.9785 47.766 12.3573C47.766 14.2213 46.7589 15.2933 45.0212 15.2933H42.9136V9.45865H45.0212ZM43.8194 14.4675H44.9198C45.192 14.4838 45.4643 14.4392 45.717 14.3369C45.9698 14.2346 46.1965 14.0773 46.3808 13.8764C46.565 13.6754 46.7021 13.4359 46.7822 13.1753C46.8622 12.9147 46.8831 12.6395 46.8434 12.3698C46.8801 12.1011 46.8569 11.8277 46.7756 11.569C46.6943 11.3104 46.5568 11.0729 46.373 10.8735C46.1892 10.6742 45.9637 10.5179 45.7124 10.4159C45.4612 10.3139 45.1905 10.2687 44.9198 10.2835H43.8194V14.4675ZM48.79 13.0898C48.7619 12.8002 48.7947 12.5079 48.8862 12.2316C48.9778 11.9554 49.1261 11.7015 49.3216 11.486C49.5172 11.2705 49.7556 11.0983 50.0217 10.9805C50.2877 10.8627 50.5755 10.8018 50.8665 10.8018C51.1575 10.8018 51.4452 10.8627 51.7113 10.9805C51.9773 11.0983 52.2158 11.2705 52.4113 11.486C52.6069 11.7015 52.7552 11.9554 52.8468 12.2316C52.9383 12.5079 52.9711 12.8002 52.9429 13.0898C52.9711 13.3794 52.9383 13.6717 52.8468 13.9479C52.7552 14.2241 52.6069 14.4781 52.4113 14.6936C52.2158 14.909 51.9773 15.0812 51.7113 15.199C51.4452 15.3169 51.1575 15.3777 50.8665 15.3777C50.5755 15.3777 50.2877 15.3169 50.0217 15.199C49.7556 15.0812 49.5172 14.909 49.3216 14.6936C49.1261 14.4781 48.9778 14.2241 48.8862 13.9479C48.7947 13.6717 48.7619 13.3794 48.79 13.0898ZM52.0487 13.0898C52.0487 12.1351 51.6203 11.5769 50.8674 11.5769C50.1118 11.5769 49.6878 12.1351 49.6878 13.0898C49.6878 14.0515 50.1127 14.6053 50.8674 14.6053C51.6203 14.6053 52.0487 14.048 52.0487 13.0898ZM58.4629 15.2933H57.5616L56.6514 12.0498H56.582L55.6763 15.2933H54.7838L53.5696 10.8898H54.4514L55.2398 14.2498H55.3047L56.2105 10.8898H57.0434L57.9491 14.2498H58.0176L58.8025 10.8898H59.6718L58.4629 15.2933ZM60.6923 10.8898H61.5278V11.5893H61.5936C61.7035 11.338 61.8892 11.1273 62.1248 10.9867C62.3604 10.8461 62.634 10.7827 62.9074 10.8053C63.1216 10.7891 63.3368 10.8214 63.5369 10.8996C63.7369 10.9779 63.9169 11.1002 64.0633 11.2575C64.2097 11.4147 64.3188 11.6029 64.3826 11.808C64.4464 12.0132 64.4632 12.2301 64.4318 12.4427V15.2924H63.5625V12.6613C63.5625 11.9529 63.2549 11.6018 62.6123 11.6018C62.4668 11.5949 62.3216 11.6196 62.1866 11.6742C62.0515 11.7287 61.9299 11.8118 61.83 11.9178C61.7301 12.0238 61.6544 12.1501 61.6079 12.2881C61.5614 12.4261 61.5453 12.5725 61.5607 12.7173V15.2933H60.6923V10.8898ZM65.8158 9.17154H66.6852V15.2933H65.8158V9.17065V9.17154ZM67.8931 13.0898C67.865 12.8002 67.8978 12.5079 67.9893 12.2316C68.0809 11.9554 68.2292 11.7015 68.4247 11.486C68.6203 11.2705 68.8587 11.0983 69.1248 10.9805C69.3909 10.8627 69.6786 10.8018 69.9696 10.8018C70.2606 10.8018 70.5483 10.8627 70.8144 10.9805C71.0804 11.0983 71.3189 11.2705 71.5145 11.486C71.71 11.7015 71.8583 11.9554 71.9499 12.2316C72.0414 12.5079 72.0742 12.8002 72.046 13.0898C72.0742 13.3794 72.0414 13.6717 71.9499 13.9479C71.8583 14.2241 71.71 14.4781 71.5145 14.6936C71.3189 14.909 71.0804 15.0812 70.8144 15.199C70.5483 15.3169 70.2606 15.3777 69.9696 15.3777C69.6786 15.3777 69.3909 15.3169 69.1248 15.199C68.8587 15.0812 68.6203 14.909 68.4247 14.6936C68.2292 14.4781 68.0809 14.2241 67.9893 13.9479C67.8978 13.6717 67.865 13.3794 67.8931 13.0898ZM71.1518 13.0898C71.1518 12.1351 70.7234 11.5769 69.9705 11.5769C69.2149 11.5769 68.79 12.1351 68.79 13.0898C68.79 14.0515 69.2149 14.6053 69.9705 14.6053C70.7234 14.6053 71.1518 14.048 71.1518 13.0898ZM72.9607 14.048C72.9607 13.2551 73.5509 12.7982 74.598 12.7333L75.7909 12.6649V12.2844C75.7909 11.8195 75.4834 11.5573 74.8896 11.5573C74.4043 11.5573 74.0683 11.7351 73.9723 12.0462H73.1305C73.2194 11.2907 73.9305 10.8053 74.9296 10.8053C76.0336 10.8053 76.6558 11.3547 76.6558 12.2844V15.2933H75.8203V14.6738H75.7509C75.4665 15.1262 74.9616 15.3902 74.4283 15.3653C74.2435 15.3846 74.0567 15.3649 73.8799 15.3075C73.7032 15.2502 73.5405 15.1564 73.4022 15.0323C73.2639 14.9082 73.1532 14.7564 73.0772 14.5869C73.0011 14.4174 72.9614 14.2338 72.9607 14.048ZM75.7909 13.672V13.3031L74.7154 13.3724C74.1091 13.4124 73.8345 13.6187 73.8345 14.0071C73.8345 14.4035 74.1785 14.6338 74.6505 14.6338C74.7889 14.6478 74.9288 14.6338 75.0618 14.5927C75.1947 14.5516 75.3181 14.4842 75.4245 14.3945C75.5309 14.3048 75.6181 14.1946 75.6811 14.0705C75.744 13.9463 75.7814 13.8108 75.7909 13.672ZM77.798 13.0898C77.798 11.6987 78.5136 10.8169 79.6256 10.8169C79.9009 10.8042 80.174 10.8702 80.4132 11.0072C80.6523 11.1442 80.8474 11.3464 80.9758 11.5902H81.0407V9.17065H81.91V15.2924H81.0771V14.5964H81.0087C80.8701 14.8384 80.668 15.0379 80.4242 15.1732C80.1804 15.3086 79.9043 15.3747 79.6256 15.3644C78.5056 15.3644 77.798 14.4835 77.798 13.0889V13.0898ZM78.6958 13.0898C78.6958 14.0231 79.1358 14.5858 79.8718 14.5858C80.6043 14.5858 81.0567 14.0151 81.0567 13.0933C81.0567 12.176 80.5998 11.5973 79.8718 11.5973C79.1403 11.5973 78.6958 12.1635 78.6958 13.0898ZM85.5047 13.0898C85.4766 12.8002 85.5093 12.5079 85.6009 12.2316C85.6924 11.9554 85.8407 11.7015 86.0363 11.486C86.2318 11.2705 86.4703 11.0983 86.7364 10.9805C87.0024 10.8627 87.2902 10.8018 87.5812 10.8018C87.8721 10.8018 88.1599 10.8627 88.4259 10.9805C88.692 11.0983 88.9305 11.2705 89.126 11.486C89.3216 11.7015 89.4699 11.9554 89.5614 12.2316C89.653 12.5079 89.6857 12.8002 89.6576 13.0898C89.6857 13.3794 89.653 13.6717 89.5614 13.9479C89.4699 14.2241 89.3216 14.4781 89.126 14.6936C88.9305 14.909 88.692 15.0812 88.4259 15.199C88.1599 15.3169 87.8721 15.3777 87.5812 15.3777C87.2902 15.3777 87.0024 15.3169 86.7364 15.199C86.4703 15.0812 86.2318 14.909 86.0363 14.6936C85.8407 14.4781 85.6924 14.2241 85.6009 13.9479C85.5093 13.6717 85.4766 13.3794 85.5047 13.0898ZM88.7634 13.0898C88.7634 12.1351 88.3349 11.5769 87.582 11.5769C86.8265 11.5769 86.4025 12.1351 86.4025 13.0898C86.4025 14.0515 86.8274 14.6053 87.5829 14.6053C88.3349 14.6053 88.7634 14.048 88.7634 13.0898ZM90.8229 10.8898H91.6594V11.5893H91.7243C91.95 11.0738 92.478 10.7591 93.0389 10.8053C93.2531 10.7893 93.4681 10.8216 93.6681 10.9C93.8681 10.9783 94.0479 11.1006 94.1942 11.2578C94.3405 11.4151 94.4496 11.6032 94.5133 11.8083C94.5771 12.0134 94.5939 12.2302 94.5625 12.4427V15.2924H93.6932V12.6613C93.6932 11.9529 93.3865 11.6018 92.7438 11.6018C92.5984 11.5949 92.4531 11.6196 92.3181 11.6742C92.1831 11.7287 92.0615 11.8118 91.9616 11.9178C91.8617 12.0238 91.7859 12.1501 91.7394 12.2881C91.6929 12.4261 91.6768 12.5725 91.6923 12.7173V15.2933H90.8229V10.8898ZM99.4718 9.79377V10.9102H100.426V11.6418H99.4727V13.9058C99.4727 14.368 99.662 14.5689 100.095 14.5689C100.206 14.5689 100.317 14.5618 100.426 14.5493V15.2729C100.27 15.3008 100.112 15.3157 99.9536 15.3173C98.9874 15.3173 98.6025 14.9769 98.6025 14.1289V11.6418H97.9038V10.9102H98.6025V9.79288H99.4727L99.4718 9.79377ZM101.614 9.17154H102.474V11.5982H102.543C102.78 11.0782 103.316 10.7627 103.885 10.8089C104.098 10.7972 104.312 10.8327 104.509 10.9128C104.707 10.993 104.885 11.1159 105.03 11.2728C105.175 11.4296 105.284 11.6165 105.348 11.8201C105.412 12.0237 105.431 12.239 105.402 12.4507V15.2933H104.532V12.664C104.532 11.9609 104.205 11.6044 103.59 11.6044C103.441 11.5923 103.291 11.613 103.15 11.6649C103.01 11.7169 102.882 11.7989 102.777 11.9052C102.671 12.0115 102.59 12.1396 102.539 12.2805C102.489 12.4214 102.469 12.5717 102.482 12.7209V15.2924H101.613V9.17065L101.614 9.17154ZM110.468 14.1049C110.35 14.5071 110.094 14.8551 109.746 15.0877C109.397 15.3204 108.977 15.4231 108.561 15.3778C108.271 15.3854 107.982 15.3298 107.716 15.2149C107.449 15.0999 107.211 14.9284 107.018 14.7121C106.824 14.4958 106.68 14.2401 106.595 13.9625C106.511 13.685 106.487 13.3923 106.527 13.1049C106.488 12.8166 106.512 12.5234 106.597 12.2452C106.682 11.9669 106.825 11.7101 107.018 11.4921C107.21 11.2741 107.447 11.0999 107.713 10.9814C107.978 10.863 108.266 10.8029 108.557 10.8053C109.782 10.8053 110.522 11.6418 110.522 13.0249V13.3271H107.412V13.3769C107.399 13.5384 107.419 13.701 107.472 13.8542C107.525 14.0074 107.609 14.1479 107.72 14.2666C107.83 14.3853 107.964 14.4797 108.113 14.5437C108.262 14.6077 108.423 14.6399 108.585 14.6382C109.01 14.6889 109.424 14.4782 109.632 14.1049H110.468ZM107.412 12.6853H109.636C109.647 12.5375 109.627 12.389 109.577 12.2494C109.527 12.1099 109.449 11.9822 109.347 11.8748C109.245 11.7674 109.121 11.6826 108.984 11.6257C108.847 11.5689 108.7 11.5414 108.552 11.5449C108.402 11.5431 108.253 11.5714 108.113 11.6281C107.974 11.6847 107.848 11.7687 107.742 11.875C107.636 11.9812 107.552 12.1077 107.495 12.2469C107.439 12.386 107.41 12.5351 107.412 12.6853ZM32.254 20.7707C32.2646 19.9546 32.4814 19.1545 32.8842 18.4447C33.287 17.7349 33.8628 17.1386 34.558 16.7111C34.1163 16.0804 33.5337 15.5613 32.8563 15.1952C32.1789 14.829 31.4255 14.6258 30.6558 14.6018C29.014 14.4293 27.422 15.584 26.5847 15.584C25.7323 15.584 24.4443 14.6187 23.0567 14.6471C22.1594 14.6762 21.285 14.9372 20.5186 15.4046C19.7521 15.8721 19.1199 16.5302 18.6834 17.3147C16.7927 20.5884 18.2034 25.4 20.014 28.0471C20.9207 29.3431 21.9794 30.7902 23.3651 30.7387C24.7216 30.6827 25.2283 29.8738 26.8656 29.8738C28.4878 29.8738 28.9634 30.7387 30.3767 30.7067C31.8318 30.6827 32.7492 29.4044 33.6238 28.0969C34.2749 27.1734 34.7759 26.1528 35.1083 25.0729C34.2627 24.7152 33.5411 24.1165 33.0335 23.3514C32.5259 22.5864 32.2548 21.6888 32.254 20.7707ZM29.5829 12.8613C30.3765 11.9087 30.7674 10.6842 30.6727 9.44799C29.4605 9.57547 28.3408 10.155 27.5367 11.0711C27.1436 11.5185 26.8425 12.0391 26.6506 12.6029C26.4587 13.1668 26.3799 13.763 26.4185 14.3573C27.0247 14.3635 27.6245 14.2321 28.1726 13.973C28.7208 13.7139 29.203 13.3338 29.5829 12.8613Z" fill="white"/>
</svg>
