<svg width="136" height="40" viewBox="0 0 136 40" fill="none" xmlns="http://www.w3.org/2000/svg">
<path d="M130.106 39.9999H5.11769C2.36795 39.9999 0.118164 37.7501 0.118164 35.0004V5.00319C0.118164 2.25345 2.36795 0.00366211 5.11769 0.00366211H130.106C132.856 0.00366211 135.105 2.25345 135.105 5.00319V35.0004C135.105 37.7501 132.856 39.9999 130.106 39.9999Z" fill="black"/>
<path d="M47.3843 10.2263C47.3843 11.0642 47.1363 11.7312 46.6393 12.2291C46.0744 12.8201 45.3395 13.116 44.4356 13.116C43.5696 13.116 42.8327 12.8161 42.2278 12.2161C41.6208 11.6152 41.3188 10.8713 41.3188 9.98234C41.3188 9.09442 41.6208 8.35049 42.2278 7.74955C42.8327 7.14861 43.5696 6.84863 44.4356 6.84863C44.8645 6.84863 45.2765 6.93263 45.6664 7.10061C46.0574 7.26859 46.3704 7.49157 46.6053 7.77055L46.0774 8.2985C45.6804 7.82354 45.1335 7.58656 44.4356 7.58656C43.8036 7.58656 43.2577 7.80854 42.7967 8.2525C42.3358 8.69646 42.1058 9.27341 42.1058 9.98234C42.1058 10.6923 42.3358 11.2692 42.7967 11.7132C43.2577 12.1571 43.8036 12.3791 44.4356 12.3791C45.1055 12.3791 45.6634 12.1561 46.1114 11.7092C46.4014 11.4182 46.5694 11.0132 46.6133 10.4943H44.4356V9.77336H47.3423C47.3703 9.93034 47.3843 10.0803 47.3843 10.2263Z" fill="white"/>
<path d="M47.5843 10.2128H47.3843C47.3833 11.0317 47.1443 11.6666 46.6683 12.1446L46.6674 12.1456V12.1466C46.1204 12.7175 45.4185 13.0015 44.5356 13.0025C43.6926 13.0015 42.9867 12.7145 42.3978 12.1316C41.8098 11.5477 41.5198 10.8347 41.5188 9.96881C41.5198 9.10289 41.8098 8.39095 42.3978 7.80701C42.9867 7.22406 43.6926 6.93609 44.5356 6.93509C44.9515 6.93509 45.3485 7.01608 45.7274 7.17907C46.1064 7.34205 46.4054 7.55603 46.6284 7.82101L46.7053 7.75701L46.6344 7.68602L46.1074 8.21397L46.1774 8.28496L46.2544 8.22097C45.8384 7.72202 45.2555 7.47104 44.5356 7.47304C43.8796 7.47204 43.3037 7.70602 42.8277 8.16697C42.3458 8.62993 42.1048 9.23887 42.1058 9.96881C42.1048 10.6997 42.3458 11.3087 42.8277 11.7716C43.3037 12.2326 43.8796 12.4666 44.5356 12.4656C45.2275 12.4666 45.8174 12.2316 46.2814 11.7666C46.5914 11.4557 46.7673 11.0247 46.8133 10.4888L46.8233 10.3808H44.6355V9.85982H47.4423V9.75982L47.3443 9.77782C47.3713 9.92881 47.3843 10.0728 47.3843 10.2128H47.5843C47.5843 10.0608 47.5703 9.90381 47.5403 9.74183L47.5263 9.65983H44.4356V10.5807H46.7133V10.4808L46.6144 10.4718C46.5704 10.9747 46.4104 11.3537 46.1404 11.6246C45.7104 12.0526 45.1835 12.2646 44.5356 12.2656C43.9266 12.2646 43.4117 12.0556 42.9667 11.6276C42.5257 11.2017 42.3068 10.6577 42.3058 9.96881C42.3068 9.28087 42.5257 8.73692 42.9667 8.31096C43.4117 7.883 43.9266 7.67402 44.5356 7.67302C45.2115 7.67402 45.7214 7.898 46.1014 8.34896L46.1714 8.43295L46.7753 7.82801L46.8403 7.76301L46.7813 7.69302C46.5354 7.40005 46.2084 7.16807 45.8064 6.99508C45.4035 6.8221 44.9775 6.73511 44.5356 6.73511C43.6456 6.73411 42.8787 7.04708 42.2568 7.66502C41.6328 8.28196 41.3179 9.05789 41.3189 9.96881C41.3179 10.8797 41.6328 11.6556 42.2568 12.2736C42.8787 12.8915 43.6466 13.2035 44.5356 13.2025C45.4605 13.2035 46.2294 12.8965 46.8113 12.2846L46.7393 12.2156L46.8103 12.2856C47.3283 11.7686 47.5853 11.0687 47.5843 10.2128Z" fill="white"/>
<path d="M52.0867 7.70009H49.3549V9.60191H51.8187V10.3228H49.3549V12.2247H52.0867V12.9616H48.584V6.96216H52.0867V7.70009Z" fill="white"/>
<path d="M52.0353 7.7244V7.62441H49.2035V9.72621H51.6673V10.2472H49.2035V12.349H51.9353V12.8859H48.6326V7.08646H51.9353V7.7244H52.0353V7.62441V7.7244H52.1353V6.88647H48.4326V13.0859H52.1353V12.149H49.4035V10.4471H51.8673V9.52623H49.4035V7.82439H52.1353V7.7244H52.0353Z" fill="white"/>
<path d="M55.2685 12.9616H54.4976V7.70009H52.8218V6.96216H56.9444V7.70009H55.2685V12.9616Z" fill="white"/>
<path d="M55.2172 12.9859V12.8859H54.5462V7.62441H52.8704V7.08646H56.793V7.62441H55.1172V12.9859H55.2172V12.8859V12.9859H55.3172V7.82439H56.993V6.88647H52.6704V7.82439H54.3463V13.0859H55.3172V12.9859H55.2172Z" fill="white"/>
<path d="M60.7055 6.96216H59.9355V12.9616H60.7055V6.96216Z" fill="white"/>
<path d="M59.8842 12.9859H59.9842V7.08646H60.5541V12.8859H59.8842V12.9859H59.9842H59.8842V13.0859H60.7541V6.88647H59.7842V13.0859H59.8842V12.9859Z" fill="white"/>
<path d="M64.1987 12.9616H63.4268V7.70009H61.752V6.96216H65.8746V7.70009H64.1987V12.9616Z" fill="white"/>
<path d="M64.1473 12.9859V12.8859H63.4754V7.62441H61.8006V7.08646H65.7232V7.62441H64.0474V12.9859H64.1473V12.8859V12.9859H64.2473V7.82439H65.9232V6.88647H61.6006V7.82439H63.2754V13.0859H64.2473V12.9859H64.1473Z" fill="white"/>
<path d="M69.7126 11.7052C70.1566 12.1541 70.6995 12.3791 71.3425 12.3791C71.9844 12.3791 72.5284 12.1541 72.9723 11.7052C73.4163 11.2552 73.6393 10.6813 73.6393 9.98234C73.6393 9.2844 73.4163 8.71046 72.9723 8.2605C72.5284 7.81154 71.9844 7.58656 71.3425 7.58656C70.6995 7.58656 70.1566 7.81154 69.7126 8.2605C69.2687 8.71046 69.0467 9.2844 69.0467 9.98234C69.0467 10.6813 69.2687 11.2552 69.7126 11.7052ZM73.5423 12.2071C72.9523 12.8141 72.2194 13.116 71.3425 13.116C70.4656 13.116 69.7316 12.8141 69.1437 12.2071C68.5537 11.6012 68.2598 10.8593 68.2598 9.98234C68.2598 9.10542 68.5537 8.36449 69.1437 7.75855C69.7316 7.1516 70.4656 6.84863 71.3425 6.84863C72.2144 6.84863 72.9453 7.15361 73.5383 7.76255C74.1302 8.37149 74.4262 9.11142 74.4262 9.98234C74.4262 10.8593 74.1312 11.6012 73.5423 12.2071Z" fill="white"/>
<path d="M69.8126 11.6916L69.7416 11.7616C70.2016 12.2296 70.7765 12.4666 71.4425 12.4656C72.1084 12.4666 72.6834 12.2296 73.1433 11.7616C73.6063 11.2937 73.8402 10.6887 73.8392 9.96881C73.8402 9.24987 73.6063 8.64493 73.1433 8.17697C72.6834 7.70902 72.1084 7.47204 71.4425 7.47304C70.7765 7.47204 70.2016 7.70902 69.7416 8.17697C69.2787 8.64493 69.0457 9.24987 69.0467 9.96881C69.0457 10.6887 69.2787 11.2937 69.7416 11.7616L69.8126 11.6916L69.8836 11.6207C69.4597 11.1897 69.2477 10.6467 69.2467 9.96881C69.2477 9.29187 69.4597 8.74892 69.8836 8.31696V8.31796C70.3116 7.886 70.8225 7.67402 71.4425 7.67302C72.0614 7.67402 72.5734 7.886 73.0003 8.31696V8.31796C73.4263 8.74892 73.6383 9.29187 73.6393 9.96881C73.6383 10.6467 73.4263 11.1897 73.0003 11.6207C72.5734 12.0526 72.0614 12.2646 71.4425 12.2656C70.8225 12.2646 70.3116 12.0526 69.8836 11.6207L69.8126 11.6916ZM73.7143 12.2636L73.5703 12.1236C72.9973 12.7115 72.2964 13.0015 71.4425 13.0025C70.5885 13.0015 69.8866 12.7115 69.3147 12.1236L69.3117 12.1216L69.3147 12.1236C68.7427 11.5347 68.4608 10.8237 68.4598 9.96881C68.4608 9.11489 68.7427 8.40395 69.3147 7.81501C69.8866 7.22706 70.5885 6.93609 71.4425 6.93509C72.2914 6.93609 72.9903 7.22806 73.5663 7.81901C74.1412 8.41095 74.4252 9.11988 74.4262 9.96881C74.4252 10.8237 74.1412 11.5347 73.5703 12.1236L73.7143 12.2636C74.3202 11.6406 74.6272 10.8687 74.6262 9.96881C74.6272 9.07489 74.3192 8.30496 73.7103 7.67902C73.1003 7.05208 72.3374 6.73411 71.4425 6.73511C70.5426 6.73411 69.7766 7.05008 69.1717 7.67502C68.5637 8.29796 68.2588 9.06989 68.2598 9.96881C68.2588 10.8687 68.5637 11.6406 69.1717 12.2636L69.1747 12.2666L69.1717 12.2636C69.7766 12.8885 70.5426 13.2035 71.4425 13.2025C72.3424 13.2035 73.1073 12.8885 73.7143 12.2636Z" fill="white"/>
<path d="M75.5249 12.9616V6.96216H76.4628L79.3785 11.6297H79.4115L79.3785 10.4738V6.96216H80.1505V12.9616H79.3456L76.2948 8.06905H76.2618L76.2948 9.22495V12.9616H75.5249Z" fill="white"/>
<path d="M75.6249 12.9859H75.7249V7.08646H76.5078L79.4235 11.754H79.6145L79.5785 10.4961V7.08646H80.1505V12.8859H79.5015L76.4508 7.99337H76.2588L76.2948 9.25125V12.8859H75.6249V12.9859H75.7249H75.6249V13.0859H76.4948V9.24825L76.4618 8.09036L76.3618 8.09336V8.19335H76.3948V8.09336L76.3098 8.14636L79.3905 13.0859H80.3505V6.88647H79.3785V10.4991L79.4115 11.657L79.5115 11.654V11.554H79.4785V11.654L79.5635 11.601L76.6188 6.88647H75.5249V13.0859H75.6249V12.9859Z" fill="white"/>
<path d="M106.905 29.9789H108.771V17.4781H106.905V29.9789ZM123.711 21.9806L121.572 27.4001H121.508L119.288 21.9806H117.278L120.607 29.5559L118.709 33.7685H120.656L125.786 21.9806H123.711ZM113.13 28.558C112.518 28.558 111.666 28.253 111.666 27.4971C111.666 26.5322 112.728 26.1622 113.644 26.1622C114.465 26.1622 114.85 26.3392 115.349 26.5802C115.204 27.7381 114.207 28.558 113.13 28.558ZM113.355 21.7077C112.004 21.7077 110.605 22.3026 110.026 23.6215L111.682 24.3134C112.036 23.6215 112.695 23.3965 113.387 23.3965C114.352 23.3965 115.333 23.9754 115.349 25.0044V25.1333C115.011 24.9404 114.288 24.6504 113.403 24.6504C111.618 24.6504 109.8 25.6313 109.8 27.4651C109.8 29.137 111.264 30.2149 112.904 30.2149C114.159 30.2149 114.85 29.6519 115.285 28.993H115.349V29.9579H117.149V25.1653C117.149 22.9455 115.494 21.7077 113.355 21.7077ZM101.824 23.5025H99.1701V19.2179H101.824C103.219 19.2179 104.011 20.3728 104.011 21.3607C104.011 22.3296 103.219 23.5025 101.824 23.5025ZM101.776 17.4781H97.3053V29.9789H99.1701V25.2423H101.776C103.844 25.2423 105.876 23.7455 105.876 21.3607C105.876 18.9749 103.844 17.4781 101.776 17.4781ZM77.3962 28.561C76.1083 28.561 75.0284 27.4811 75.0284 25.9993C75.0284 24.5014 76.1083 23.4065 77.3962 23.4065C78.6691 23.4065 79.668 24.5014 79.668 25.9993C79.668 27.4811 78.6691 28.561 77.3962 28.561ZM79.539 22.6816H79.475C79.056 22.1816 78.2501 21.7307 77.2352 21.7307C75.1094 21.7307 73.1596 23.5995 73.1596 25.9993C73.1596 28.384 75.1094 30.2359 77.2352 30.2359C78.2501 30.2359 79.056 29.7849 79.475 29.2699H79.539V29.8819C79.539 31.5087 78.6691 32.3787 77.2672 32.3787C76.1243 32.3787 75.4154 31.5567 75.1254 30.8648L73.4985 31.5407C73.9655 32.6686 75.2054 34.0545 77.2672 34.0545C79.459 34.0545 81.3108 32.7656 81.3108 29.6239V21.9886H79.539V22.6816ZM82.5997 29.9789H84.4685V17.4781H82.5997V29.9789ZM87.2233 25.8543C87.1743 24.2114 88.4961 23.3735 89.446 23.3735C90.188 23.3735 90.8159 23.7445 91.0249 24.2764L87.2233 25.8543ZM93.0227 24.4374C92.6687 23.4865 91.5888 21.7307 89.3821 21.7307C87.1913 21.7307 85.3704 23.4545 85.3704 25.9833C85.3704 28.368 87.1743 30.2359 89.591 30.2359C91.5409 30.2359 92.6687 29.044 93.1357 28.351L91.6858 27.3851C91.2029 28.0941 90.5419 28.561 89.591 28.561C88.6401 28.561 87.9642 28.1261 87.5292 27.2721L93.2157 24.9204L93.0227 24.4374ZM47.718 23.0355V24.8394H52.0356C51.9066 25.8543 51.5686 26.5952 51.0527 27.1112C50.4247 27.7391 49.4418 28.432 47.718 28.432C45.0602 28.432 42.9824 26.2892 42.9824 23.6315C42.9824 20.9737 45.0602 18.8309 47.718 18.8309C49.1518 18.8309 50.1987 19.3949 50.9727 20.1198L52.2445 18.8469C51.1656 17.816 49.7318 17.0271 47.718 17.0271C44.0773 17.0271 41.0166 19.9908 41.0166 23.6315C41.0166 27.2721 44.0773 30.2359 47.718 30.2359C49.6838 30.2359 51.1656 29.5919 52.3255 28.384C53.5174 27.1911 53.8884 25.5163 53.8884 24.1634C53.8884 23.7445 53.8554 23.3575 53.7914 23.0355H47.718ZM58.7959 28.561C57.507 28.561 56.3962 27.4981 56.3962 25.9833C56.3962 24.4534 57.507 23.4065 58.7959 23.4065C60.0848 23.4065 61.1957 24.4534 61.1957 25.9833C61.1957 27.4981 60.0848 28.561 58.7959 28.561ZM58.7959 21.7307C56.4441 21.7307 54.5273 23.5185 54.5273 25.9833C54.5273 28.432 56.4441 30.2359 58.7959 30.2359C61.1477 30.2359 63.0645 28.432 63.0645 25.9833C63.0645 23.5185 61.1477 21.7307 58.7959 21.7307ZM68.1081 28.561C66.8202 28.561 65.7083 27.4981 65.7083 25.9833C65.7083 24.4534 66.8202 23.4065 68.1081 23.4065C69.3969 23.4065 70.5088 24.4534 70.5088 25.9833C70.5088 27.4981 69.3969 28.561 68.1081 28.561ZM68.1081 21.7307C65.7563 21.7307 63.8395 23.5185 63.8395 25.9833C63.8395 28.432 65.7563 30.2359 68.1081 30.2359C70.4608 30.2359 72.3776 28.432 72.3776 25.9833C72.3776 23.5185 70.4608 21.7307 68.1081 21.7307Z" fill="white"/>
<path fill-rule="evenodd" clip-rule="evenodd" d="M10.5262 32.3811L10.4522 32.3101C10.1612 32.0022 9.98926 31.5242 9.98926 30.9053V31.0503V8.93134V9.08333C9.98926 8.41339 10.1902 7.90744 10.5252 7.60547L22.914 19.9933L10.5262 32.3811ZM9.98926 8.93034C9.98926 8.87535 9.99126 8.82135 9.99326 8.76936C9.99126 8.82135 9.98926 8.87535 9.98926 8.93034ZM9.99426 8.76636V8.76436V8.76636ZM9.99426 8.75936V8.75836V8.75936Z" fill="url(#paint0_linear)"/>
<path fill-rule="evenodd" clip-rule="evenodd" d="M26.9826 24.2612L27.0766 24.2072L31.9691 21.4275C32.4361 21.1625 32.7471 20.8415 32.9021 20.5006C32.7471 20.8415 32.4361 21.1625 31.9691 21.4285L27.0766 24.2082L26.9826 24.2612ZM26.9836 24.1142L22.854 19.9836L26.9836 15.854L31.9691 18.6867C32.6031 19.0457 32.9581 19.5097 33.017 19.9836V19.9856C32.9581 20.4576 32.6031 20.9215 31.9691 21.2815L26.9836 24.1142Z" fill="url(#paint1_linear)"/>
<path fill-rule="evenodd" clip-rule="evenodd" d="M11.3938 32.8383C11.0478 32.8383 10.7468 32.7253 10.5109 32.5133V32.5123C10.7468 32.7253 11.0488 32.8383 11.3948 32.8383C11.4248 32.8383 11.4558 32.8373 11.4868 32.8353C11.4558 32.8373 11.4248 32.8383 11.3938 32.8383ZM11.3948 32.6913C11.0488 32.6923 10.7468 32.5793 10.5109 32.3664L22.8987 19.9785L27.0283 24.1091L12.5147 32.3564C12.1137 32.5843 11.7327 32.6913 11.3948 32.6913ZM10.5079 32.5103C10.4859 32.4903 10.4639 32.4693 10.4429 32.4473L10.5079 32.5103Z" fill="url(#paint2_linear)"/>
<path fill-rule="evenodd" clip-rule="evenodd" d="M22.8317 19.9723L10.4429 7.58448C10.6788 7.3725 10.9798 7.25951 11.3258 7.25951C11.6648 7.25951 12.0457 7.3675 12.4477 7.59648L26.9613 15.8427L22.8317 19.9723ZM27.0543 15.7497L12.4477 7.45049C12.0457 7.22152 11.6648 7.11353 11.3258 7.11353H11.3218H11.3268C11.6658 7.11353 12.0457 7.22151 12.4477 7.44949L27.0543 15.7487V15.7497Z" fill="url(#paint3_linear)"/>
<path d="M11.4928 32.8333C11.8067 32.8153 12.1547 32.7074 12.5207 32.5004L27.0333 24.2542L12.5207 32.5004C12.1547 32.7084 11.8067 32.8163 11.4928 32.8333ZM10.5169 32.5114L10.5139 32.5084C10.5149 32.5094 10.5159 32.5104 10.5169 32.5114ZM10.4489 32.4454L10.4429 32.4394C10.4449 32.4414 10.4469 32.4434 10.4489 32.4454Z" fill="black"/>
<path fill-rule="evenodd" clip-rule="evenodd" d="M27.0918 24.2688L27.1831 24.2163L27.0918 24.2688Z" fill="url(#paint4_linear)"/>
<path d="M10.4522 32.4332C10.1612 32.1252 9.98926 31.6473 9.98926 31.0283V31.0273C9.98926 31.6473 10.1612 32.1252 10.4522 32.4322V32.4332Z" fill="black"/>
<path fill-rule="evenodd" clip-rule="evenodd" d="M10.4429 32.4244V32.4234L10.5147 32.3516L10.4429 32.4244Z" fill="url(#paint5_linear)"/>
<path d="M32.9946 20.4945C33.0716 20.3265 33.1096 20.1525 33.1096 19.9795C33.1096 19.9785 33.1106 19.9785 33.1106 19.9785C33.1106 20.1525 33.0716 20.3255 32.9946 20.4945Z" fill="black"/>
<path d="M33.0332 19.9643H33.0322C33.0322 19.4414 32.6833 18.9184 31.9843 18.5215L27.0918 15.7417V15.7407L31.9843 18.5215C32.6833 18.9184 33.0332 19.4414 33.0332 19.9643Z" fill="#404040"/>
<path d="M9.98926 8.91036V8.90936V8.91036ZM9.99326 8.74837C9.99426 8.74737 9.99426 8.74637 9.99426 8.74537C9.99426 8.74637 9.99426 8.74737 9.99326 8.74837ZM9.99426 8.74337V8.73837V8.74337ZM9.99426 8.73737C10.0523 7.71047 10.6102 7.11753 11.4001 7.11353C11.0582 7.11553 10.7602 7.22751 10.5262 7.43849L10.5232 7.44149C10.4992 7.46349 10.4752 7.48649 10.4522 7.51049C10.1902 7.78846 10.0243 8.20442 9.99426 8.73737Z" fill="#404040"/>
<defs>
<linearGradient id="paint0_linear" x1="16.4516" y1="7.60547" x2="16.4516" y2="32.3811" gradientUnits="userSpaceOnUse">
<stop stop-color="#00C2FF"/>
<stop offset="1" stop-color="#00E3FF"/>
</linearGradient>
<linearGradient id="paint1_linear" x1="33.7894" y1="19.984" x2="22.9995" y2="20" gradientUnits="userSpaceOnUse">
<stop stop-color="#FFDA00"/>
<stop offset="1" stop-color="#FCBC01"/>
</linearGradient>
<linearGradient id="paint2_linear" x1="24.8275" y1="22.2734" x2="10.9995" y2="33" gradientUnits="userSpaceOnUse">
<stop stop-color="#FF3248"/>
<stop offset="1" stop-color="#E22653"/>
</linearGradient>
<linearGradient id="paint3_linear" x1="27.4995" y1="16.5" x2="9.99951" y2="7" gradientUnits="userSpaceOnUse">
<stop stop-color="#00F076"/>
<stop offset="1" stop-color="#13D772"/>
</linearGradient>
<linearGradient id="paint4_linear" x1="33.7033" y1="20.1141" x2="10.2027" y2="20.1141" gradientUnits="userSpaceOnUse">
<stop stop-color="#CCB300"/>
<stop offset="1" stop-color="#CC7C00"/>
</linearGradient>
<linearGradient id="paint5_linear" x1="24.4212" y1="22.5478" x2="2.31719" y2="0.443644" gradientUnits="userSpaceOnUse">
<stop stop-color="#DF333B"/>
<stop offset="1" stop-color="#AA0E56"/>
</linearGradient>
</defs>
</svg>
